<?xml version="1.0" encoding="UTF-8" standalone="no"?>
<svg
	xmlns:dc="http://purl.org/dc/elements/1.1/"
	xmlns:cc="http://creativecommons.org/ns#"
	xmlns:rdf="http://www.w3.org/1999/02/22-rdf-syntax-ns#"
	xmlns:svg="http://www.w3.org/2000/svg"
	xmlns="http://www.w3.org/2000/svg"
	viewBox="0 0 109.62437 82.3475"
	height="82.347504"
	width="109.62437"
	xml:space="preserve"
	version="1.1"
	id="svg2">
	<metadata id="metadata8">
		<rdf:RDF>
			<cc:Work rdf:about="">
				<dc:format>image/svg+xml</dc:format>
				<dc:type rdf:resource="http://purl.org/dc/dcmitype/StillImage" />
				<dc:title></dc:title>
			</cc:Work>
		</rdf:RDF>
	</metadata>
	<defs id="defs6" />
	<g transform="matrix(1.25,0,0,-1.25,-1.0520456,1051.1289)" id="g10">
		<g transform="matrix(0.1,0,0,0.1,-253.87902,387.49415)" id="g12">
			<path id="path14" style="fill:#274595;fill-opacity:1;fill-rule:nonzero;stroke:none" d="m 3423.53,3918.87 c -5.63,6.64 -15.94,6.53 -15.94,6.53 0,0 -31.05,19.56 -54.75,12.23 0,0 -27.37,6.11 -35.54,131.22 0,0 -10.21,172.82 -145.44,144.7 0,0 -17.17,8.16 -36.37,8.16 0,0 -3.67,4.07 -20.02,7.74 0,0 89.88,29.34 86.62,63.59 0,0 -47.8,-28.95 -91.94,-37.5 0,0 6.14,-20.79 -18.78,-32.62 0,0 13.89,-51.76 -66.18,-38.3 0,0 -4.5,-4.08 -13.09,-4.08 0,0 11.04,-50.95 -68.23,-21.19 0,0 65.37,-17.53 59.66,20.37 0,0 -44.54,-1.22 -40.46,12.64 0,0 72.34,-22.01 74.38,22.82 0,0 -50.27,-4.07 -50.27,11.82 0,0 69.87,-18.75 69.87,26.49 0,0 -51.49,-12.62 -56.39,6.53 0,0 72.44,-16.49 65.8,28.53 0,0 -57.17,-15.35 -56.41,2.45 0,0 76.06,-6.27 62.12,30.56 0,0 -49.46,-20.14 -55.58,-4.89 0,0 80.46,5.5 55.58,37.91 0,0 -47.14,-21.33 -52.29,-6.53 0,0 76.81,8.56 53.09,48.9 0,0 -48.6,-28.11 -55.56,-14.25 0,0 76.81,17.93 59.25,51.76 0,0 -38,-26.49 -119.31,-33.83 0,0 -27.78,-2.45 -21.65,-22.02 16.41,-52.37 1.63,-120.64 -46.17,-141.82 -47.8,-21.2 -44.95,-41.17 -44.95,-41.17 0,0 1.37,-20.06 -3.58,5.27 -4.31,22 27.8,42.11 36.33,47.03 10.02,3.63 39.15,18.27 50.02,68.59 4.85,28.15 -5.56,67.97 -5.56,67.97 -4.16,17.85 12.5,19.9 12.5,19.9 122.11,16.48 147.8,45.31 147.8,45.31 3.46,1.38 7.62,-6.87 7.62,-6.87 33.98,8.25 61.05,24.04 61.05,24.04 52.72,59.04 29.75,67.23 29.75,67.23 -40.91,-48.8 -111.04,-74.09 -111.04,-74.09 -2.05,5.06 -7.15,0.51 -7.15,0.51 -47.08,-38.46 -128.61,-46.37 -128.61,-46.37 -31.01,-3.45 -24.47,-31.55 -24.47,-31.55 23.6,-82.97 -17.37,-122.25 -31.07,-132.7 -5.31,6.38 -1.25,48.03 -1.25,48.03 9.61,73.84 -18.37,86.89 -18.37,86.89 -12.88,9 -9.38,12.48 -9.38,12.48 24.48,5.69 12.7,30.86 12.7,30.86 -14.36,5.69 -29.82,-12.49 -31.3,-13.59 -1.47,-1.1 -1.47,0.91 -1.47,0.91 4.6,16.16 -3.68,9 -3.68,9 0,0 -7.91,-3.31 -29.26,-1.66 -21.36,1.66 -15.83,4.42 -26.7,4.79 -10.86,0.35 -9.03,-9.37 -9.03,-9.37 0,0 2.4,0.55 2.4,-2.02 0,-2.57 -1.34,-2.37 -1.34,-2.37 -45.49,2.51 -45.91,-15.55 -48.02,-24.37 -2.1,-8.82 1.69,-18.49 3.37,-14.71 1.69,3.78 7.59,14.71 18.54,9.67 10.95,-5.05 26.53,-17.22 26.53,-19.74 0,-2.53 -2.11,-4.21 -2.11,-4.21 -35.37,-15.97 -37.06,0.84 -37.06,0.84 -1.26,-42.87 33.27,-13.03 41.69,-17.23 8.43,-4.2 25.7,-5.89 34.12,-6.3 8.43,-0.42 26.96,3.78 29.06,6.72 2.12,2.94 5.06,-0.83 5.06,-0.83 -20.64,-26.48 -57.7,-5.05 -50.12,-12.19 7.58,-7.14 2.9,-28.22 2.9,-28.22 -58.23,-104.65 -23.13,-135.96 -28.08,-163.56 -4.96,-27.6 13.22,-63.86 13.22,-63.86 -17.76,-43.25 -26.45,-68.79 -34.29,-95.58 -7.85,-26.77 -24.41,-57.23 -24.41,-57.23 -2.78,-9.11 -12.93,-9.37 -12.93,-9.37 -26.38,6.84 -30.95,-8.34 -30.95,-8.34 l -0.26,-0.51 c -14.05,-0.11 -14.36,-9.52 -14.36,-9.52 0,0 1.5,-0.18 4.17,-0.03 0.6,0.03 1.68,-1.59 1.9,-2.51 0.06,-0.23 0.03,-0.53 0.07,-0.78 -0.77,3.96 -3.06,3.12 -3.06,3.12 -12.48,0 -11.09,3.47 -11.09,3.47 0,0 2.43,11.06 -5.2,14.16 -7.62,3.12 -0.33,10.36 -0.33,10.36 0,0 118.77,158.99 25.94,193.82 -23.28,8.72 -22.13,10.14 -22.13,10.14 -13.75,83.49 7.77,77.52 7.77,77.52 0,0 -17.22,5.45 -28.08,5.2 -10.85,0.25 -26.33,-5.2 -26.33,-5.2 0,0 21.53,5.97 7.77,-77.52 0,0 1.16,-1.42 -22.12,-10.14 -92.83,-34.83 25.93,-193.82 25.93,-193.82 0,0 7.3,-7.24 -0.33,-10.36 -7.62,-3.1 -5.2,-14.16 -5.2,-14.16 0,0 1.39,-3.47 -11.09,-3.47 0,0 -3.32,1.31 -3.32,-6.05 0,-7.34 2.85,-7.13 2.85,-7.13 l 65.43,0 c 0,0 0.49,0 1.05,0.47 0.04,-0.02 1.13,-0.65 1.78,-0.93 0.68,-0.29 -3.55,16.85 10.52,17.29 4.98,-3.74 1.39,0.66 -0.89,-9.08 0,-8.41 7.53,-8.7 12.51,-7.97 -5.53,15.79 9.92,13.57 9.92,13.57 -2.1,-13.28 0,-11.17 3.51,-13.28 3.5,-2.1 25.24,1.39 24.54,6.99 -0.7,5.59 5.6,9.1 9.81,9.1 4.21,0 8.68,5.15 8.68,5.15 0,0 55.13,117.39 118.94,152.64 0,0 -5.58,32.12 16.11,40.16 0,0 -11.15,-19.77 -3.72,-36.47 0,0 45.22,-9.27 77.43,12.98 0,0 126.38,83.43 166.63,36.47 0,0 3.73,-88.98 94.8,-121.13 0,0 84.86,-29.04 43.35,-79.09 0,0 -24.76,5.56 -19.19,-9.28 0,0 -17.22,4.64 -17.96,-8.11 -0.78,-3.45 -1.58,-16.76 9.89,-15.37 0,0 -6.81,14.21 6.82,12.99 0,0 -6.14,-9.94 9.49,-13.71 1.07,0.13 -14.49,14.45 10.95,16.17 0,0 -16.82,-8.36 1.86,-14.83 0,0 16.11,3.7 30.97,0 0,0 17.35,1.23 8.06,55.62 0,0 -7.43,15.45 0,56.85 0,0 6.19,16.06 -10.54,18.55 0,0 -39.02,-3.1 -63.18,59.93 0,0 27.27,64.89 -5.58,113.09 0,0 65.69,18.54 83.63,-126.68 0,0 8.68,-117.05 52.04,-133.92 0,0 16.35,-29.34 62.52,-10.19 0,0 15.93,4.13 11.84,8.97 z m -617.76,492.46 c 0,0 -5.34,-7.51 -12.47,-4.75 0,0 -0.35,0.2 -0.93,0.5 0.35,-0.83 0.55,-1.72 0.55,-2.67 0,-3.97 -3.37,-7.2 -7.52,-7.2 -4.15,0 -7.51,3.23 -7.51,7.2 0,3.2 2.18,5.87 5.19,6.82 -2.33,0.83 -4.64,1.47 -6.38,1.47 -5.54,0 -4.94,-2.76 -4.94,-2.76 0,0 -2.19,7.7 5.54,7.7 7.7,0 13.83,-3.56 13.83,-3.56 0,0 7.53,-4.93 14.64,-2.75 z m 44.97,3.65 c -0.01,0.15 -0.01,0.26 -0.02,0.38 -0.21,0.32 -2.42,2.97 -11.62,-6.54 l -1.91,0.83 c 0,0 4.88,12.59 17.48,10.19 0,0 7.25,-12.69 -11.78,-17.55 l -1.78,2.49 c 0,0 10.11,1.54 9.63,10.2 z m -62.07,-10.57 c 0,1.74 -1.47,3.16 -3.27,3.16 -1.8,0 -3.26,-1.42 -3.26,-3.16 0,-1.74 1.46,-3.15 3.26,-3.15 1.8,0 3.27,1.41 3.27,3.15 z m 463.92,65.71 c 0.03,9.06 -5.42,11.53 -5.42,11.53 -31.81,-52.31 -110.15,-73.57 -110.15,-73.57 10.86,-10.53 0.71,-30.66 0.71,-30.66 122.24,49.44 114.86,92.7 114.86,92.7 z m -176.81,-174.68 c 40.89,5.36 48.73,22.66 49.56,28.84 0.82,6.18 -3.3,9.47 -3.3,9.47 -14.89,-9.47 -37.59,-11.95 -37.59,-11.95 7.44,-18.53 -8.67,-26.36 -8.67,-26.36 z m 145.68,32.2 c 0.79,4.06 -2.81,4.06 -2.81,4.06 -23.26,-19.49 -90.56,-37.76 -90.56,-37.76 -1.6,-19.09 -18.03,-28.84 -18.03,-28.84 94.15,24.37 110.6,58.47 111.4,62.54 z m 20.74,51.43 c 0,10.45 -3.73,8.16 -3.73,8.16 -24.33,-38.82 -103.22,-63.63 -103.22,-63.63 5.77,-8.17 -9.91,-23.63 -9.91,-23.63 96.23,22.73 116.86,68.64 116.86,79.1 z m -156.09,-25.54 c 6.61,-10.71 -4.54,-24.31 -4.54,-24.31 52.85,12.77 50.38,25.55 51.62,30.49 1.22,4.95 -2.07,9.47 -2.07,9.47 -12.79,-6.99 -45.01,-15.65 -45.01,-15.65 z m 0.9,38.53 c 3.33,-15.06 -5.08,-25.87 -6.93,-27.55 1.4,1.12 5.64,-1.93 5.64,-1.93 41.46,10.09 45.85,19.4 47.67,30.52 1.81,11.1 -2.85,12.4 -2.85,12.4 -9.85,-4.13 -43.53,-13.44 -43.53,-13.44 z m 54.01,-22.46 c 6.62,-26.78 -14.86,-30.49 -10.73,-30.49 4.12,0 6.62,-6.59 6.62,-6.59 83,29.66 113.97,79.92 113.97,88.98 0,9.07 -4.53,10.72 -4.53,10.72 -31.8,-44.08 -105.33,-62.62 -105.33,-62.62 z m -60.81,-148.79 c -8.58,-7.05 -36.21,-5.82 -36.21,-5.82 0,-16.52 -13.18,-24.49 -13.18,-24.49 43.86,-4.58 52.78,17.76 52.78,23.89 0,6.11 -3.39,6.42 -3.39,6.42 z m -30.45,-0.34 c 32.22,-3.31 53.7,21.82 53.28,31.3 -0.41,9.48 -3.31,8.24 -3.31,8.24 -29.61,-7.47 -33.82,-7 -34.28,-6.47 1.51,-29.37 -15.69,-33.07 -15.69,-33.07 z m 24.78,64.68 c 3.31,-21.02 -7.43,-23.49 -7.43,-23.49 46.25,8.24 51.63,22.24 51.63,28.01 0,5.77 -2.47,7.01 -2.47,7.01 -9.51,-10.3 -41.73,-11.53 -41.73,-11.53 z m 149.23,185.45 c 27.56,26.1 21.01,47.74 21.01,47.74 -1.05,8.59 -6.55,6.53 -6.55,6.53 -38.21,-62.16 -145.95,-88.26 -145.95,-88.26 -2.07,-30.22 -17.91,-31.93 -14.12,-31.6 3.79,0.35 7.56,-5.15 7.56,-5.15 67.49,13.4 110.52,44.64 138.05,70.74 z m -33.64,24.19 c 0,5.3 -4.43,4.86 -4.43,4.86 -3.99,-14.58 -20.82,-26.95 -20.82,-26.95 27.45,10.6 25.25,16.79 25.25,22.09 z M 2743.1,4174.06 c 0,0 -36.27,28.18 -39.57,36.64 -3.3,8.46 -30.61,34.78 -37.2,32.9 -6.6,-1.88 -34.4,-2.36 -34.4,-2.36 0,0 -11.76,3.29 -17.05,2.82 -5.27,-0.46 -6.96,-7.5 -6.96,-7.5 -3.29,4.22 -6.12,0 -6.12,0 0,0 -13.2,-11.29 -7.54,-22.09 5.66,-10.81 17.42,-4.23 17.42,-4.23 0,0 -8,4.23 -5.17,14.09 2.82,9.87 10.83,3.76 10.83,3.76 0,0 -6.12,0.47 -4.71,-8.46 1.03,-6.53 8.12,-7.78 11.85,-7.98 0.89,-0.36 -11.94,11.91 7.45,15.03 -3.76,-0.47 -3.28,-6.58 -3.28,-6.58 4.48,-14.77 11.3,-10.8 11.3,-10.8 0,0 -4.24,7.98 11.3,5.17 15.55,-2.83 8.48,-10.81 46.63,-67.65 38.15,-56.87 60.76,-61.09 60.76,-61.09 -15.08,45.11 -9.42,43.69 -9.42,61.09 0,17.37 -6.12,27.24 -6.12,27.24 z m 245.18,-288.83 c 2.62,-8.75 14.89,-4.37 14.89,-4.37 -4.82,10.92 8.74,15.28 8.74,15.28 1.77,3.06 18.41,0 7.02,-1.32 -11.39,-1.29 -9.63,-12.66 -8.33,-14.4 1.31,-1.75 11.39,-0.88 21.46,0 10.07,0.87 20.15,0 20.15,0 47.29,78.18 84.94,88.24 91.96,93.04 7.01,4.8 2.63,10.49 2.63,10.49 -7.89,14.41 -4.82,36.67 -4.82,36.67 -32.41,20.98 -36.35,82.14 -36.35,82.14 -14.43,13.53 -24.94,11.08 -27.16,11.36 -2.18,0.29 -21.01,-1.3 -21.45,-3.93 -0.43,-2.62 4.83,-7.42 4.83,-7.42 -2.18,-39.32 22.32,-85.63 21.89,-85.18 -0.43,0.44 7.46,-6.56 7.46,-24.48 0,-17.89 -57.82,-82.99 -57.82,-82.99 -34.17,8.74 -30.66,-8.74 -30.66,-8.74 -9.63,-3.49 -17.07,-7.42 -14.44,-16.15" />
		</g>
	</g>
</svg>